<?xml version="1.0" encoding="UTF-8" standalone="no"?>
<!-- Created with Inkscape (http://www.inkscape.org/) -->
<svg
   xmlns:svg="http://www.w3.org/2000/svg"
   xmlns="http://www.w3.org/2000/svg"
   xmlns:xlink="http://www.w3.org/1999/xlink"
   xmlns:inkscape="http://www.inkscape.org/namespaces/inkscape"
   version="1.0"
   width="48"
   height="48"
   viewBox="0 0 48 48"
   id="svg2">
  <defs
     id="defs4">
    <linearGradient
       id="linearGradient8018">
      <stop
         id="stop8020"
         style="stop-color:#ffffff;stop-opacity:1"
         offset="0" />
      <stop
         id="stop8022"
         style="stop-color:#ffffff;stop-opacity:0"
         offset="1" />
    </linearGradient>
    <filter
       height="1.6645019"
       y="-0.33225095"
       width="1.3309474"
       x="-0.16547368"
       id="filter7992">
      <feGaussianBlur
         id="feGaussianBlur7994"
         stdDeviation="12.563878"
         inkscape:collect="always" />
    </filter>
    <linearGradient
       x1="191.23862"
       y1="331.86215"
       x2="350.31149"
       y2="331.86215"
       id="linearGradient8045"
       xlink:href="#linearGradient8018"
       gradientUnits="userSpaceOnUse" />
  </defs>
  <g
     id="layer1">
    <g
       transform="matrix(0.1449349,0,0,0.1449349,-12.185735,-27.139736)"
       id="g8038">
      <g
         id="g8032">
        <path
           d="M 340.65368,448.95599 C 332.44825,473.90459 286.95395,488.04323 237.34157,485.87384 C 187.72919,483.70445 152.69325,466.04448 160.89869,441.09589 C 169.10414,416.1473 217.45906,393.31102 267.07142,395.48039 C 316.6838,397.64977 348.85913,424.00739 340.65368,448.95599 z"
           id="path5700"
           style="opacity:0.26808514;fill:#000000;fill-opacity:1;fill-rule:nonzero;stroke:none;stroke-width:0.60515201;stroke-linecap:round;stroke-linejoin:bevel;stroke-miterlimit:4;stroke-dasharray:none;stroke-dashoffset:0;stroke-opacity:1;filter:url(#filter7992)" />
        <path
           d="M 350.29695,346.24575 C 349.36955,421.78083 304.32799,469.3722 249.55859,468.69976 C 194.78919,468.02729 150.92968,419.34435 151.8571,343.80931 C 152.78451,268.27426 198.1494,194.34963 252.91879,195.02208 C 307.68817,195.69451 351.22436,270.7107 350.29695,346.24575 z"
           id="path5495"
           style="fill:#e9b96e;fill-opacity:1;fill-rule:nonzero;stroke:#c17d11;stroke-width:6;stroke-linecap:round;stroke-linejoin:bevel;stroke-miterlimit:4;stroke-dasharray:none;stroke-dashoffset:0;stroke-opacity:1" />
        <path
           d="M 252.84375,201.03125 C 228.17805,200.72841 204.77487,217.37669 187.1875,244.125 C 169.60013,270.87331 158.29301,307.28437 157.84375,343.875 C 156.94524,417.05541 198.36982,462.05817 249.625,462.6875 C 300.88024,463.31679 343.41402,419.36822 344.3125,346.1875 C 344.76175,309.59758 334.33822,272.92249 317.40625,245.75 C 300.47428,218.57751 277.50942,201.33408 252.84375,201.03125 z"
           id="path8006"
           style="opacity:0.47234042;fill:none;fill-opacity:1;fill-rule:nonzero;stroke:#ffffff;stroke-width:6;stroke-linecap:round;stroke-linejoin:bevel;stroke-miterlimit:4;stroke-dasharray:none;stroke-dashoffset:0;stroke-opacity:1" />
        <path
           d="M 350.29695,346.24575 C 349.36955,421.78083 304.32799,469.3722 249.55859,468.69976 C 194.78919,468.02729 150.92968,419.34435 151.8571,343.80931 C 152.78451,268.27426 198.1494,194.34963 252.91879,195.02208 C 307.68817,195.69451 351.22436,270.7107 350.29695,346.24575 z"
           id="path8008"
           style="opacity:0.37021275;fill:url(#linearGradient8045);fill-opacity:1;fill-rule:nonzero;stroke:none;stroke-width:6;stroke-linecap:round;stroke-linejoin:bevel;stroke-miterlimit:4;stroke-dasharray:none;stroke-dashoffset:0;stroke-opacity:1" />
      </g>
    </g>
  </g>
</svg>
